<svg xmlns="http://www.w3.org/2000/svg" viewBox="0 0 512 512">
  <rect width="512" height="512" rx="112" fill="#12262d"/>
  <path d="M108 148c0-28 22-50 50-50h196c28 0 50 22 50 50v216c0 28-22 50-50 50H158c-28 0-50-22-50-50V148z" fill="#e9fbf7"/>
  <path d="M154 168h204M154 220h156M154 272h204" stroke="#0d9488" stroke-width="24" stroke-linecap="round"/>
  <path d="M168 354c42-60 74-60 116 0 23-32 45-46 68-42" fill="none" stroke="#f6c453" stroke-width="28" stroke-linecap="round" stroke-linejoin="round"/>
  <circle cx="374" cy="128" r="48" fill="#0d9488"/>
  <text x="374" y="146" text-anchor="middle" font-size="46" font-family="Arial, sans-serif" font-weight="800" fill="#fff">AI</text>
</svg>
